<svg width="191" height="194" viewBox="0 0 191 194" fill="none" xmlns="http://www.w3.org/2000/svg">
<path d="M2.35014 116.341C1.09964 110.09 0.434811 103.772 0.264648 97.2966C2.0296 57.8963 19.5326 28.1559 55.1679 9.86478C69.7624 2.37254 85.6113 -0.670069 101.907 0.882768C139.442 4.46139 166.17 23.9428 181.706 57.8608C198.046 93.5288 190.016 136.011 162.735 164.262C147.341 180.204 128.805 190.163 106.696 192.634C78.0925 195.831 52.8609 187.795 31.6498 168.258C16.3154 154.137 6.44988 136.815 2.35014 116.341Z" fill="#FDFDFD"/>
<path d="M162.735 164.262C147.341 180.204 128.805 190.163 106.696 192.634C78.0925 195.831 52.8609 187.795 31.6498 168.258C16.3154 154.137 6.44988 136.815 2.35014 116.341C1.09964 110.09 0.434811 103.772 0.264648 97.2966C2.0296 57.8963 19.5326 28.1559 55.1679 9.86478C69.7624 2.37254 85.6113 -0.670069 101.907 0.882768C139.442 4.46139 166.17 23.9428 181.706 57.8608C198.046 93.5288 190.016 136.011 162.735 164.262Z" fill="#1C101C"/>
<path d="M22.7808 147.654C19.3379 142.814 16.6114 137.754 14.3518 132.437C8.94612 119.727 6.69442 106.433 7.29593 92.6861C8.87488 56.7738 31.6134 26.1387 63.0738 13.6254C85.0169 4.89956 107.059 4.96262 128.848 14.0195C147.016 21.5709 160.87 34.2537 170.823 51.0984C180.166 66.9145 184.076 84.1218 183.027 102.385C182.168 117.37 177.847 131.353 169.837 144.143C169.738 144.304 169.592 144.434 169.358 144.706C166.877 140.481 163.723 136.93 159.837 134.037C156.327 131.428 152.5 129.422 148.393 127.928C146.177 127.124 144.503 124.661 144.376 122.3C144.178 118.54 145.009 115.041 146.545 111.624C148.614 107.004 150.272 102.251 150.759 97.1515C151.563 88.7922 149.849 80.8467 146.909 73.0983C145.955 70.5877 144.827 68.1402 143.747 65.6809C142.773 63.4699 142.841 61.0657 142.433 58.7601C140.803 49.5416 137.265 41.2927 130.355 34.7463C123.517 28.267 115.314 24.4598 106.046 22.97C92.7059 20.826 80.2128 23.1947 68.7842 30.4465C58.0124 37.2845 52.3179 47.441 49.8921 59.6824C48.2736 67.8446 48.0282 76.0778 48.3567 84.3544C48.6772 92.5442 47.1576 100.537 45.7844 108.549C45.0326 112.944 44.439 117.362 44.4469 121.835C44.4469 122.694 44.3004 123.463 43.9403 124.287C43.1172 126.163 42.0171 127.428 39.9158 128.114C37.8026 128.807 36.3938 130.593 35.6617 132.756C35.4005 133.521 35.0919 134.155 34.2687 134.53C28.8037 137.025 25.3767 141.344 23.2992 146.842C23.2121 147.071 23.034 147.264 22.7887 147.65L22.7808 147.654Z" fill="#CB8F58"/>
<path d="M53.4824 108.186C55.5283 114.24 57.2932 120.392 59.8576 126.269C60.831 126.883 60.463 128.212 61.3138 128.964C61.4128 129.134 61.4721 128.681 61.3178 128.894C60.5659 128.082 60.5026 127.041 60.3799 126.024C60.3562 125.831 60.3403 125.638 60.2691 125.457C57.7562 115.001 55.6549 104.47 54.4163 93.7852C52.9086 80.7516 52.5287 67.7417 56.2446 54.9604C57.7206 49.8841 60.0356 45.2019 63.7475 41.312C66.7036 41.4223 68.7931 43.0697 70.4354 45.2886C73.0669 48.8475 73.799 52.9228 73.2015 57.2305C72.8493 59.7647 72.0816 62.1964 71.0646 64.5651C68.8881 69.6414 67.5268 74.9778 66.2129 80.322C65.9834 81.2561 66.0546 82.3045 65.2632 83.0454C64.2303 83.7943 64.5351 85.0081 64.3055 86.0053C62.1449 95.4011 63.3202 104.726 65.2038 113.988C66.8422 122.052 69.8932 129.631 73.7872 136.871C74.4718 138.199 75.192 139.499 76.3198 140.524C78.2747 142.912 79.5885 145.715 81.5039 148.154C86.8224 154.933 93.0314 160.735 100.04 165.724C100.843 166.296 101.706 166.772 102.541 167.289C98.8882 173.748 94.4402 179.684 90.293 185.812C89.7073 186.676 88.9633 186.51 88.1996 186.439C67.3685 184.496 49.4618 176.251 34.4993 161.692C33.233 160.463 32.0577 159.142 30.8428 157.861C32.7383 155.059 34.4201 152.076 37.3406 150.125C38.3418 149.455 38.1123 148.663 37.6335 147.748C36.2959 145.198 35.2749 142.53 34.8357 139.669C36.2128 138.467 36.1376 139.953 36.3434 140.556C38.5634 147.027 42.3031 152.56 46.9212 157.586C45.176 154.031 43.324 150.531 42.0221 146.791C43.9295 146.609 45.3541 145.486 46.7827 144.371C48.3102 146.731 49.8535 149.08 52.2398 151.173C51.6779 148.659 50.2018 146.759 49.8258 144.489C49.9248 144.17 50.0752 143.846 50.364 143.693C53.3993 142.041 53.5971 139.29 53.1262 136.378C52.1369 130.218 52.0024 124.022 52.0657 117.803C52.0934 115.186 52.6118 112.604 52.5326 109.98C52.5089 109.262 52.6751 108.529 53.4824 108.194V108.186Z" fill="#CECAB9"/>
<path d="M102.544 167.285C101.788 167.746 101.306 167.131 100.807 166.792C93.2524 161.629 86.6042 155.52 81.0126 148.249C79.212 145.904 77.7676 143.378 76.2203 140.895C75.0371 139.724 74.5266 138.128 73.5966 136.792C67.9179 125.879 64.6888 114.232 63.6995 102.042C63.2365 96.3353 63.1692 90.5338 64.2852 84.827C64.4118 84.1727 64.487 83.5382 64.946 83.0219C65.5911 80.5823 66.2678 78.1506 66.8772 75.6991C67.9179 71.5096 69.3386 67.4581 70.9453 63.4459C73.3236 57.5104 73.9845 51.5868 70.2132 45.8248C68.6342 43.4127 66.153 42.459 63.7549 41.3042C68.2701 35.8298 74.0953 32.1606 80.7237 29.9338C95.8405 24.8536 110.308 26.0675 123.589 35.3648C131.409 40.8391 136.43 49.766 137.546 59.3943C136.949 58.8426 136.407 58.3381 135.86 57.8376C135.758 57.9006 135.655 57.9676 135.548 58.0307C136.715 60.7068 137.875 63.3828 139.046 66.0589C141.468 71.5845 143.589 77.1968 144.974 83.1007C147.06 91.9763 146.284 100.493 142.544 108.805C139.402 115.793 136.395 122.84 133.324 129.863C130.206 137.044 127.249 144.3 123.68 151.276C120.554 157.393 117.123 163.34 113.086 168.921C112.782 169.342 112.56 169.839 111.978 169.961C109.351 173.658 106.719 177.351 104.091 181.048C103.15 182.388 102.239 183.747 101.274 185.072C100.839 185.667 100.407 186.222 99.7028 186.506H94.9462C97.6529 182.545 100.368 178.718 102.936 174.801C112.52 160.175 120.455 144.718 126.347 128.243C126.632 127.447 127.04 126.698 127.388 125.926C131.052 121.788 134.503 117.492 137.135 112.601C139.557 108.104 141.163 103.386 141.555 98.235C141.761 95.5392 141.998 92.8867 141.504 90.2146C141.227 88.7209 141.955 87.2626 141.65 85.7729C140.641 79.8413 138.631 74.2763 135.671 69.0227C131.1 60.9117 124.365 56.1074 114.99 55.0827C109.074 54.4363 103.185 54.3141 97.2928 55.3428C91.816 56.3005 87.2453 58.815 83.7312 63.0951C73.9884 74.9621 69.4178 88.4174 71.2777 103.82C73.3552 120.988 79.5009 136.512 90.2212 150.168C93.846 154.783 97.9972 158.906 102.746 162.366C104.325 163.517 104.839 164.463 103.427 166C103.078 166.378 102.833 166.855 102.544 167.289V167.285Z" fill="#F3F4E7"/>
<path d="M111.978 169.965C114.246 166.091 116.889 162.461 119.149 158.579C123.391 151.28 126.83 143.61 130.205 135.897C131.112 133.832 131.705 131.577 133.328 129.867C132.235 135.002 130.312 139.866 128.409 144.733C127.316 147.527 126.133 150.282 124.994 153.057C124.721 154.397 124.048 155.575 123.45 156.785C124.159 155.851 124.206 154.503 125.322 153.822C129.877 145.892 133.165 137.379 136.782 129.02C136.846 129.004 136.952 128.953 136.964 128.972C138.63 131.199 140.122 133.52 140.87 136.24C138.943 143.074 135.358 149.088 131.515 154.969C126.988 161.893 121.709 168.254 116.525 174.706C119.81 172.353 122.615 169.476 125.362 166.556C132.774 158.673 139.244 150.129 143.715 140.209C144.63 138.175 145.528 136.118 145.928 133.922C146.193 132.46 146.679 131.964 148.061 132.791C148.674 133.158 149.327 133.453 149.964 133.781C149.327 137.328 148.476 140.82 147.079 144.15C146.549 145.411 147.186 145.896 148.167 146.416C151.951 148.426 155.065 151.177 157.245 154.898C157.938 156.08 158.694 157.25 158.737 158.689C150.866 167.364 141.547 174.083 130.929 179.03C122.995 182.726 114.61 184.874 105.959 186.069C105.516 186.132 105.057 186.076 104.439 186.076C105.437 183.014 106.929 180.263 108.349 177.493C109.307 175.624 110.364 173.811 111.388 171.983C111.741 171.356 112.168 170.757 111.986 169.977L111.978 169.965Z" fill="#CDC9B8"/>
<path d="M126.972 70.8203C127.384 73.0037 126.814 75.1202 126.486 77.2445C126.157 79.3688 126.288 81.4143 127.158 83.4006C129.481 88.7016 127.483 92.761 123.363 94.6488C120.775 95.8352 119.525 98.1289 119.101 100.884C118.971 101.727 118.797 102.567 118.745 103.414C118.678 104.526 117.791 104.399 117.154 104.435C116.292 104.486 116.652 103.714 116.596 103.268C116.549 102.882 116.596 102.484 116.596 102.09C116.596 101.55 116.612 101.01 115.848 100.967C115.104 100.923 114.752 101.25 114.764 101.999C114.772 102.59 114.697 103.186 114.748 103.769C114.867 105.046 114.06 105.046 113.13 105.117C112.073 105.196 111.911 104.675 111.974 103.832C112.006 103.442 111.954 103.048 111.954 102.653C111.954 101.948 111.899 101.325 110.926 101.357C109.806 101.392 110.162 102.177 110.166 102.772C110.17 103.363 110.209 103.95 110.245 104.537C110.3 105.393 109.75 105.531 109.097 105.448C108.472 105.369 107.538 105.873 107.419 104.687C107.356 104.037 107.297 103.383 107.281 102.724C107.257 101.814 106.945 101.12 105.912 101.25C104.784 101.392 105.516 102.267 105.413 102.811C105.219 103.84 106.545 105.59 103.981 105.479C102.754 105.428 102.295 105.062 102.445 103.883C102.469 103.69 102.453 103.489 102.421 103.296C102.271 102.342 102.734 100.821 101.143 100.931C99.7937 101.026 100.704 102.378 100.486 103.138C100.265 103.915 101.104 105.306 99.2595 105.093C97.9101 104.939 96.1293 105.393 96.5408 102.992C96.5646 102.866 96.5606 102.728 96.5369 102.602C96.3588 101.7 97.0909 100.159 95.3458 100.269C93.7074 100.371 94.9303 101.849 94.5345 102.598C94.2417 103.146 95.227 104.384 93.7035 104.25C92.639 104.155 91.3647 104.198 91.5547 102.472C91.6259 101.83 91.4518 101.168 91.4478 100.513C91.4478 99.7409 91.1788 99.1852 90.3319 99.2561C89.4929 99.3271 89.8847 100.048 89.8412 100.494C89.7818 101.077 89.857 101.672 89.8293 102.259C89.8135 102.61 90.0193 103.119 89.4534 103.217C88.9706 103.304 88.3968 103.154 88.3572 102.63C87.9061 96.9545 83.5728 95.4686 79.1328 94.0813C78.4402 93.297 78.7173 92.2289 78.3215 91.354C77.0908 87.6965 78.3413 84.3347 79.5958 80.9847C79.9361 80.0782 80.4664 79.2466 80.7196 78.3007C81.242 77.3391 81.8712 76.4405 82.4094 75.4827C82.6191 75.1123 82.8685 74.6117 83.4304 74.8009C83.834 74.9349 83.8894 75.3842 83.9567 75.7665C84.0873 76.5232 83.929 77.3233 84.301 78.0406C85.3932 81.5956 87.7517 83.7002 91.4993 84.047C95.975 84.4648 99.5326 81.229 100.162 76.2749C100.696 72.0775 97.8072 68.2585 93.5215 67.486C92.7537 67.3481 91.9346 67.4821 91.2183 67.0564C90.5931 65.8741 91.6615 65.543 92.3026 65.1725C94.1823 64.0769 96.2243 63.3281 98.3533 62.859C104.507 61.4993 110.637 61.8619 116.719 63.2926C119.77 64.0099 122.52 65.3617 124.772 67.624C125.71 68.5659 126.549 69.5394 126.964 70.8203H126.972Z" fill="#F2F3E6"/>
<path d="M90.6523 110.162C92.2075 109.996 91.2657 108.751 91.5823 108.049C91.8751 107.391 90.957 106.071 92.7457 106.205C94.2099 106.315 94.7244 106.878 94.4711 108.293C94.3682 108.865 94.4197 109.468 94.4276 110.059C94.4315 110.607 94.7046 110.875 95.2823 110.887C95.868 110.899 96.1173 110.623 96.149 110.075C96.1648 109.815 96.1846 109.551 96.2123 109.291C96.4537 106.965 97.4668 106.378 99.7976 107.107C100.415 107.3 100.443 107.651 100.387 108.136C100.324 108.723 100.225 109.306 100.205 109.894C100.189 110.366 99.9163 111.009 100.735 111.127C101.519 111.241 101.76 110.737 101.875 110.098C101.954 109.649 102.113 109.196 102.105 108.747C102.073 106.847 103.47 107.43 104.467 107.391C105.931 107.328 105.199 108.431 105.298 109.07C105.35 109.385 105.267 109.724 105.267 110.051C105.267 110.485 105.112 111.029 105.84 111.036C106.355 111.044 106.731 110.835 106.838 110.292C106.948 109.712 107.166 109.133 107.15 108.557C107.099 106.993 108.235 107.485 109.05 107.375C110.269 107.213 109.944 108.014 110.015 108.715C110.09 109.456 109.275 110.69 110.482 110.851C111.574 110.997 111.369 109.661 111.654 108.912C111.879 108.325 111.602 107.462 112.314 107.182C112.825 106.981 113.537 106.965 114.048 107.158C114.669 107.395 114.214 108.077 114.281 108.561C114.368 109.192 113.478 110.181 114.507 110.394C115.674 110.634 115.666 109.401 115.829 108.617C116.22 106.717 116.197 106.713 118.294 106.315C117.76 110.248 117.249 114.103 116.695 117.953C116.6 118.623 115.872 118.734 115.381 119.029C109.331 122.659 103.078 122.746 96.6713 120.085C94.6175 119.234 92.4885 118.537 90.6246 117.279C89.6986 115.344 89.8015 113.259 89.7659 111.202C89.758 110.721 89.9281 110.134 90.6602 110.162H90.6523Z" fill="#F3F4E7"/>
<path d="M83.9054 78.2928C83.1139 77.3627 83.7273 76.1961 83.3711 75.1044C82.3304 75.9715 82.3976 77.5519 81.1748 78.1943C79.9323 80.6063 78.6857 83.0302 78.2108 85.722C77.8784 87.598 77.4669 89.545 78.7728 91.287C79.5405 92.1344 78.9865 93.1551 79.1448 94.0813C76.0739 93.9197 74.5108 91.4446 74.9936 88.6346C76.0502 82.5217 78.8757 77.1223 81.8199 71.7859C82.8606 69.898 84.1111 68.1087 85.425 66.3943C88.7966 62.0077 93.0981 59.1937 98.7373 58.4173C105.203 57.5266 111.618 57.6409 117.954 59.0755C124.646 60.5889 127.032 63.8601 126.972 70.8242C120.625 62.5516 111.646 62.3506 102.421 62.863C98.6819 63.0719 95.1915 64.0335 92.002 66.0002C91.6972 66.1854 90.9374 66.2091 91.4559 66.9185C91.3965 67.7107 90.7 67.7186 90.1816 67.9156C86.347 69.3699 84.5465 71.9238 84.4198 76.0857C84.3961 76.8503 84.5504 77.6701 83.9014 78.2968L83.9054 78.2928Z" fill="#C0BAA7"/>
<path d="M158.729 158.682C157.131 155.785 155.674 152.813 153.13 150.535C151.313 148.908 149.374 147.485 147.162 146.496C146.26 146.094 145.916 145.79 146.3 144.793C147.605 141.396 148.892 137.983 149.212 134.309C149.244 133.935 149.643 133.868 149.956 133.777C156.573 136.934 162.085 141.274 165.5 147.934C166.118 149.136 166.145 150.011 165.231 151.091C163.082 153.637 161.179 156.396 158.721 158.682H158.729Z" fill="#F2F3E6"/>
<path d="M98.6377 146.066C96.8491 146.716 95.0089 146.381 93.1886 146.338C92.4525 146.318 92.0805 145.695 91.6967 145.171C89.5716 142.259 87.6761 139.204 85.9388 136.047C85.5352 135.31 85.4877 134.597 85.6974 133.789C86.7303 129.789 87.316 125.717 87.3793 121.587C87.3991 120.2 87.8858 120.255 88.8949 120.799C93.0738 123.049 97.4506 124.767 102.152 125.591C104.356 125.977 103.07 127.593 103.26 128.693C102.868 129.355 102.516 130.057 101.61 130.135C98.4636 130.742 95.3136 131.259 92.409 130.281C92.8483 130.569 93.1411 130.88 93.612 131.665C93.5249 134.546 93.4893 137.427 92.7335 140.233C92.0172 140.879 92.5554 141.194 93.0817 141.522C93.8455 141.998 94.8229 142.148 95.3532 142.988C95.5115 145.002 97.13 145.479 98.6338 146.074L98.6377 146.066Z" fill="#BAB4A1"/>
<path d="M141.646 85.7731C142.208 89.1704 142.56 92.6032 142.334 96.0242C142.006 100.978 141.104 105.83 138.876 110.37C136.735 114.737 134.143 118.808 130.969 122.478C129.901 123.711 129.279 125.512 127.384 125.926C128.14 122.403 129.533 119.076 130.565 115.64C133.098 107.241 135.239 98.7515 136.608 90.002C137.459 91.3381 137.653 94.5029 137.265 100.123C137.032 103.512 136.398 106.843 135.655 110.149C135.579 110.993 135.56 111.856 134.942 112.538C135.496 111.974 135.5 111.111 136.038 110.544C139.972 101.018 140.32 91.1923 138.239 80.6219C139.92 82.7975 140.395 84.9021 141.452 86.8294C141.531 86.4076 141.586 86.0923 141.646 85.777V85.7731Z" fill="#CDC9B9"/>
<path d="M92.1475 140.607C92.8202 138.337 92.7965 135.984 92.9983 133.658C93.0656 132.906 92.7094 132.066 93.4019 131.428C93.5523 131.301 93.7225 131.128 93.9005 131.16C96.6667 131.648 99.1875 130.702 101.728 129.875C102.239 129.477 102.749 129.083 103.26 128.685C103.909 133.067 104.118 137.54 106.097 141.639C106.516 142.506 105.816 143.003 105.29 143.436C103.362 145.021 101.115 145.848 98.6334 146.065C96.085 146.522 94.9967 145.316 94.9769 142.889C95.4518 142.294 96.1404 142.353 96.7775 142.353C98.5345 142.353 100.11 141.836 101.522 140.752C99.322 141.805 96.9872 141.927 94.6287 141.75C93.6869 141.679 92.6302 141.722 92.1475 140.607Z" fill="#CFCCBC"/>
<path d="M53.4824 108.186C52.691 110.977 52.8809 113.877 52.7583 116.703C52.4694 123.344 52.6593 129.981 53.7951 136.587C54.5549 141.013 53.5932 142.538 49.8219 144.485C47.966 140.216 47.4278 135.696 47.3486 131.049C48.5437 133.422 49.2798 136.019 50.9656 138.214C47.9739 126.245 49.1532 114.417 52.1647 102.59C52.6039 104.458 53.0432 106.322 53.4824 108.19V108.186Z" fill="#F3F0E6"/>
<path d="M34.8353 139.669C35.9157 141.186 36.0186 143.074 36.7744 144.714C37.2097 145.659 37.4748 146.731 38.0922 147.532C39.1686 148.919 38.848 149.833 37.4907 150.677C35.2588 152.06 33.9054 154.228 32.4491 156.305C32.0217 156.912 31.808 157.787 30.8424 157.861C30.1737 157.148 29.584 156.34 28.8282 155.737C26.1926 153.636 26.3747 151.28 27.7201 148.501C29.4257 144.982 31.2579 141.655 34.8353 139.669Z" fill="#F2F3E6"/>
<path d="M115.092 139.704C115.867 141.284 115.713 142.786 114.969 144.386C112.623 149.431 110.145 154.408 107.435 159.272C106.695 160.604 106.196 160.521 105.171 159.634C103.339 158.05 101.439 156.545 99.6387 154.57C100.893 154.148 102.041 153.794 103.161 153.376C105.214 152.611 107.067 151.5 108.606 149.935C108.998 149.537 109.841 149.19 109.203 148.359C108.123 147.582 108.566 146.546 108.721 145.556C110.304 143.527 111.344 141.308 111.107 138.651C110.858 137.114 111.863 137.248 112.749 137.548C113.81 137.903 114.534 138.742 115.092 139.708V139.704Z" fill="#CECAB9"/>
<path d="M90.6521 110.161C89.9002 110.997 90.1377 112.025 90.3474 112.896C90.6996 114.362 90.5611 115.821 90.6205 117.279C87.4665 116.061 84.7162 114.181 82.0688 112.132C81.4712 111.667 81.1546 111.095 81.1111 110.299C80.8737 106.117 80.5294 101.944 80.8103 97.6753C81.863 97.7068 82.6347 98.1049 82.8721 99.1335C83.2283 100.659 84.0989 102.066 84.0791 103.662C84.0514 105.912 85.2781 107.288 87.0589 108.36C87.4388 108.589 87.7514 109.105 88.2421 108.912C88.8041 108.691 88.4756 108.112 88.527 107.694C88.5745 107.308 88.4796 106.902 88.5468 106.519C88.622 106.082 88.2144 105.317 89.0059 105.302C89.6945 105.286 90.1139 105.731 90.1772 106.571C90.2683 107.769 89.7696 109.065 90.6561 110.161H90.6521Z" fill="#CDC9BA"/>
<path d="M46.778 144.367C45.947 146.137 43.6795 147.292 42.0174 146.787C40.5295 143.689 39.6035 140.434 39.4056 137.001C39.2908 134.971 39.9201 133.261 41.8512 132.24C42.706 131.791 43.2442 131.747 43.3708 132.981C43.7744 136.985 45.0368 140.753 46.778 144.367Z" fill="#F2F2E6"/>
<path d="M140.87 136.232C139.259 133.966 138.104 131.444 136.782 129.016C137.502 127.27 138.219 125.524 139.145 123.282C140.34 127.865 143.648 131.609 140.87 136.232Z" fill="#B9B19E"/>
<path d="M108.721 145.557C109.398 146.404 108.594 147.504 109.204 148.359C107.146 150.432 104.542 151.378 101.756 151.949C100.102 151.997 98.5192 151.843 97.1816 150.586C97.9137 149.833 98.7329 150.377 99.3383 149.998C102.876 149.376 106.058 148 108.725 145.557H108.721Z" fill="#E5E0D6"/>
<path d="M115.093 139.704C114.381 139.184 113.673 138.652 112.953 138.144C112.145 137.58 111.429 137.415 111.108 138.648C110.61 137.087 110.068 135.59 108.33 134.9C107.309 134.494 107.396 133.41 107.622 132.709C107.907 131.826 108.782 132.508 109.296 132.638C112.956 133.552 114.429 136.315 115.089 139.704H115.093Z" fill="#B5AF9E"/>
<path d="M99.3351 149.998C98.9235 150.526 98.227 150.219 97.5583 150.645C99.0462 151.106 100.4 151.527 101.753 151.949C100.047 152.304 98.2864 153.356 96.7589 151.567C96.4779 151.236 96.0268 150.865 96.193 150.408C96.383 149.88 96.9765 150.101 97.4 150.069C98.0411 150.018 98.6901 150.022 99.3351 149.998Z" fill="#B0A79F"/>
<path d="M99.6992 186.506C101.136 184.666 102.216 182.541 104.092 181.052C103.387 182.565 102.655 184.067 101.983 185.592C101.508 186.672 100.633 186.628 99.7032 186.506H99.6992Z" fill="#AEAA99"/>
<path d="M83.3155 130.77C82.8643 129.556 81.8711 128.803 82.7654 127.704C82.9712 127.451 83.5054 127.321 83.632 127.558C84.1584 128.539 83.7547 129.485 83.3155 130.77Z" fill="#908685"/>
<path d="M125.321 153.818C124.862 155.055 124.106 156.119 123.05 157.053L124.989 153.057C125.1 153.313 125.207 153.565 125.317 153.822L125.321 153.818Z" fill="#504A42"/>
<path d="M60.269 125.453C60.9773 126.576 60.9338 127.908 61.282 129.149C60.451 128.353 60.1423 127.313 59.8574 126.265C59.9959 125.993 60.1305 125.725 60.269 125.453Z" fill="#5B554E"/>
<path d="M136.038 110.54C136.093 111.395 135.551 111.99 134.985 112.888C135.021 111.738 135.14 110.898 135.65 110.145C135.777 110.275 135.907 110.409 136.034 110.54H136.038Z" fill="#5A564D"/>
<path d="M64.9463 83.0221C64.2498 85.8913 64.143 88.8275 64.048 91.7519C63.5731 106.346 66.6084 120.243 72.5126 133.56C73.0112 134.687 73.5336 135.803 74.0481 136.922C74.1668 137.352 73.9649 137.462 73.5771 137.391C68.5395 128.618 65.2906 119.222 63.7512 109.239C62.5244 101.301 62.0219 93.3599 63.8264 85.4341C64.0401 84.4922 64.3725 83.5739 64.6535 82.6477C64.6574 82.6319 64.7999 82.6319 64.8117 82.6556C64.8711 82.7699 64.9028 82.8999 64.9463 83.0221Z" fill="#20181C"/>
<path d="M57.7988 149.053C66.8847 158.973 78.6972 164.917 90.3554 171.081C77.7633 166.284 65.0288 161.705 57.7988 149.053Z" fill="#1C141A"/>
<path d="M63.1338 141.017C65.0768 144.103 67.2137 146.984 69.7622 149.557C72.2553 152.08 75.0215 154.279 78.1319 156.391C72.4849 155.883 63.9727 147.106 63.1378 141.017H63.1338Z" fill="#201A1C"/>
<path d="M56.7266 155.844C60.4741 160.636 65.2624 163.387 70.7433 165.949C63.9407 165.563 58.0048 161.294 56.7266 155.844Z" fill="#221B1B"/>
<path d="M73.5762 137.391C73.7345 137.233 73.8888 137.08 74.0471 136.922C74.7713 138.246 75.4994 139.57 76.2236 140.895C74.7594 140.165 74.3241 138.664 73.5801 137.391H73.5762Z" fill="#635F59"/>
<path d="M120.617 52.1785C111.321 50.5745 102.069 50.4759 92.8408 52.5096C102.053 48.4935 111.321 48.529 120.617 52.1785Z" fill="#221D20"/>
<path d="M121.784 46.8655C113.32 44.15 104.697 43.2514 95.8838 44.5441C105.029 41.8286 113.973 42.1045 122.651 46.4044C122.694 47.1808 122.216 46.9798 121.784 46.8655Z" fill="#201B1F"/>
<path d="M121.784 46.8651C122.097 46.7586 122.516 46.8414 122.651 46.4039C123.62 46.6128 124.388 47.1764 125.342 47.9174C123.893 47.8976 122.825 47.4247 121.784 46.8651Z" fill="#5E5C59"/>
<path d="M83.9051 78.2918C83.8141 75.6867 83.7468 73.121 85.3654 70.8035C86.881 68.6359 89.0061 67.5599 91.4556 66.9136C96.8098 66.9648 100.023 69.5699 100.637 74.3546C101.23 78.9934 98.5629 83.1711 94.2614 84.3377C89.7184 85.5713 85.5909 83.1592 83.9051 78.2879V78.2918Z" fill="#1D101D"/>
<path d="M124.685 75.6557C124.713 77.981 124.396 80.2275 122.972 82.1705C120.823 85.0989 117.538 85.2683 115.105 82.5923C111.923 79.0885 111.919 72.2032 115.105 68.8493C117.629 66.185 121.029 66.4648 123.118 69.4996C124.4 71.3638 124.764 73.4526 124.689 75.6557H124.685Z" fill="#1C101B"/>
<path d="M107.135 90.6637C106.577 91.4598 106.763 92.2757 106.617 93.0048C106.466 93.7457 106.094 94.195 105.307 94.1911C104.401 94.1911 104.238 93.5132 104.238 92.8432C104.23 89.4695 105.228 86.3875 107.206 83.668C108.215 82.2768 109.383 82.4463 109.949 84.0543C110.966 86.9432 110.95 89.9622 110.811 92.9811C110.788 93.458 110.582 93.8876 110.059 94.0137C109.474 94.1517 109.07 93.8797 108.742 93.395C108.18 92.5673 108.128 91.4283 107.135 90.6716V90.6637Z" fill="#1C101D"/>
<path d="M78.7689 91.2869C77.5145 89.9942 77.0989 88.5162 77.6332 86.1673C78.2861 83.2941 79.3071 80.5511 81.175 78.1942C80.4468 80.2594 79.687 82.3167 79.0024 84.3977C78.2584 86.6599 78.0764 88.9616 78.7689 91.283V91.2869Z" fill="#4A4642"/>
<path d="M103.878 82.9347C104.127 81.2085 105.093 79.904 106.407 78.8004C106.145 80.4991 105.481 81.977 103.878 82.9347Z" fill="#393633"/>
<path d="M92.1488 140.607C95.8211 142.1 99.2838 141.403 102.663 139.547C102.105 141.391 100.503 142.573 98.1203 142.83C97.0835 142.94 96.0269 142.873 94.9782 142.885C93.9375 142.392 92.7622 142.144 91.9232 141.277C91.6066 140.946 91.4325 140.619 92.1488 140.607Z" fill="#241C1D"/>
<path d="M101.733 129.875C99.2283 131.838 96.4304 132.236 93.4071 131.428C92.5207 130.84 91.4285 130.49 90.8428 129.114C94.3687 130.793 97.7443 130.691 101.144 129.579C101.44 129.481 101.638 129.579 101.733 129.875Z" fill="#2A2222"/>
</svg>
